{
  "accessors": [
    {
      "bufferView": 2,
      "componentType": 5126,
      "count": 53470,
      "max": [
        8.430425643920898,
        7.777896404266357,
        13.084590911865234
      ],
      "min": [
        -22.97307014465332,
        -13.422330856323242,
        -4.678757667541504
      ],
      "type": "VEC3"
    },
    {
      "bufferView": 2,
      "byteOffset": 641640,
      "componentType": 5126,
      "count": 53470,
      "max": [
        0.999925434589386,
        0.9999989867210388,
        0.9998367428779602
      ],
      "min": [
        -0.9997948408126831,
        -0.999987006187439,
        -0.9996941089630127
      ],
      "type": "VEC3"
    },
    {
      "bufferView": 1,
      "componentType": 5126,
      "count": 53470,
      "max": [
        0.9521191716194153,
        0.9987292885780334
      ],
      "min": [
        0.0007969573489390314,
        0.0046672523021698
      ],
      "type": "VEC2"
    },
    {
      "bufferView": 1,
      "byteOffset": 427760,
      "componentType": 5126,
      "count": 53470,
      "max": [
        0.9989989995956421,
        0.9989989995956421
      ],
      "min": [
        0.0010010009864345193,
        0.0010010009864345193
      ],
      "type": "VEC2"
    },
    {
      "bufferView": 0,
      "componentType": 5125,
      "count": 76782,
      "type": "SCALAR"
    },
    {
      "bufferView": 2,
      "byteOffset": 1283280,
      "componentType": 5126,
      "count": 65534,
      "max": [
        0.32948869466781616,
        0.567267894744873,
        2.6076605319976807
      ],
      "min": [
        -2.5820586681365967,
        -2.3337278366088867,
        -4.493678092956543
      ],
      "type": "VEC3"
    },
    {
      "bufferView": 2,
      "byteOffset": 2069688,
      "componentType": 5126,
      "count": 65534,
      "max": [
        0.9999842047691345,
        0.9999300241470337,
        1.0
      ],
      "min": [
        -0.9999615550041199,
        -0.9999929666519165,
        -1.0
      ],
      "type": "VEC3"
    },
    {
      "bufferView": 1,
      "byteOffset": 855520,
      "componentType": 5126,
      "count": 65534,
      "max": [
        0.9985271692276001,
        1.0872611999511719
      ],
      "min": [
        0.00019298835832159966,
        0.00031369924545288086
      ],
      "type": "VEC2"
    },
    {
      "bufferView": 1,
      "byteOffset": 1379792,
      "componentType": 5126,
      "count": 65534,
      "max": [
        0.9989989995956421,
        0.9989989995956421
      ],
      "min": [
        0.0010010009864345193,
        0.0010010009864345193
      ],
      "type": "VEC2"
    },
    {
      "bufferView": 0,
      "byteOffset": 307128,
      "componentType": 5125,
      "count": 94593,
      "type": "SCALAR"
    },
    {
      "bufferView": 2,
      "byteOffset": 2856096,
      "componentType": 5126,
      "count": 34800,
      "max": [
        0.586254358291626,
        0.39414456486701965,
        2.511579990386963
      ],
      "min": [
        -2.5820586681365967,
        -1.910592794418335,
        -4.034070014953613
      ],
      "type": "VEC3"
    },
    {
      "bufferView": 2,
      "byteOffset": 3273696,
      "componentType": 5126,
      "count": 34800,
      "max": [
        0.9999819993972778,
        0.9999300241470337,
        0.9999989867210388
      ],
      "min": [
        -0.9999971985816956,
        -0.9999840259552002,
        -1.0
      ],
      "type": "VEC3"
    },
    {
      "bufferView": 1,
      "byteOffset": 1904064,
      "componentType": 5126,
      "count": 34800,
      "max": [
        0.9985271692276001,
        0.994811475276947
      ],
      "min": [
        -0.18878349661827087,
        0.0008234083652496338
      ],
      "type": "VEC2"
    },
    {
      "bufferView": 1,
      "byteOffset": 2182464,
      "componentType": 5126,
      "count": 34800,
      "max": [
        0.9913361668586731,
        0.9875485897064209
      ],
      "min": [
        0.0010010009864345193,
        0.0010010009864345193
      ],
      "type": "VEC2"
    },
    {
      "bufferView": 0,
      "byteOffset": 685500,
      "componentType": 5125,
      "count": 52272,
      "type": "SCALAR"
    }
  ],
  "asset": {
    "extras": {
      "author": "StijnBeerts (https://sketchfab.com/StijnBeerts)",
      "license": "CC-BY-NC-4.0 (http://creativecommons.org/licenses/by-nc/4.0/)",
      "source": "https://sketchfab.com/3d-models/viking-guardpost-6f27ada661a14a0aa651475cff81d656",
      "title": "Viking guardpost"
    },
    "generator": "Sketchfab-11.19.0",
    "version": "2.0"
  },
  "bufferViews": [
    {
      "buffer": 0,
      "byteLength": 894588,
      "name": "floatBufferViews",
      "target": 34963
    },
    {
      "buffer": 0,
      "byteLength": 2460864,
      "byteOffset": 894588,
      "byteStride": 8,
      "name": "floatBufferViews",
      "target": 34962
    },
    {
      "buffer": 0,
      "byteLength": 3691296,
      "byteOffset": 3355452,
      "byteStride": 12,
      "name": "floatBufferViews",
      "target": 34962
    }
  ],
  "buffers": [
    {
      "byteLength": 7046748,
      "uri": "scene.bin"
    }
  ],
  "images": [
    {
      "uri": "textures/AO_environment_baseColor.jpeg"
    },
    {
      "uri": "textures/AO_environment_metallicRoughness.png"
    },
    {
      "uri": "textures/AO_building_metallicRoughness.png"
    }
  ],
  "materials": [
    {
      "doubleSided": true,
      "name": "AO_environment",
      "occlusionTexture": {
        "index": 1,
        "texCoord": 1
      },
      "pbrMetallicRoughness": {
        "baseColorTexture": {
          "index": 0
        },
        "metallicFactor": 0.0,
        "metallicRoughnessTexture": {
          "index": 1,
          "texCoord": 1
        },
        "roughnessFactor": 0.8211145618
      }
    },
    {
      "doubleSided": true,
      "name": "AO_building",
      "occlusionTexture": {
        "index": 2,
        "texCoord": 1
      },
      "pbrMetallicRoughness": {
        "baseColorTexture": {
          "index": 0
        },
        "metallicFactor": 0.0,
        "metallicRoughnessTexture": {
          "index": 2,
          "texCoord": 1
        },
        "roughnessFactor": 0.8211145618
      }
    }
  ],
  "meshes": [
    {
      "name": "guardpost_environment_geo_AO_environment_0",
      "primitives": [
        {
          "attributes": {
            "NORMAL": 1,
            "POSITION": 0,
            "TEXCOORD_0": 2,
            "TEXCOORD_1": 3
          },
          "indices": 4,
          "material": 0,
          "mode": 4
        }
      ]
    },
    {
      "name": "guardpost_geo_AO_building_0",
      "primitives": [
        {
          "attributes": {
            "NORMAL": 6,
            "POSITION": 5,
            "TEXCOORD_0": 7,
            "TEXCOORD_1": 8
          },
          "indices": 9,
          "material": 1,
          "mode": 4
        }
      ]
    },
    {
      "name": "guardpost_geo_AO_building_0",
      "primitives": [
        {
          "attributes": {
            "NORMAL": 11,
            "POSITION": 10,
            "TEXCOORD_0": 12,
            "TEXCOORD_1": 13
          },
          "indices": 14,
          "material": 1,
          "mode": 4
        }
      ]
    }
  ],
  "nodes": [
    {
      "children": [
        1
      ],
      "matrix": [
        1.0,
        0.0,
        0.0,
        0.0,
        0.0,
        2.220446049250313e-16,
        -1.0,
        0.0,
        0.0,
        1.0,
        2.220446049250313e-16,
        0.0,
        0.0,
        0.0,
        0.0,
        1.0
      ],
      "name": "Sketchfab_model"
    },
    {
      "children": [
        2
      ],
      "matrix": [
        1.0,
        0.0,
        0.0,
        0.0,
        0.0,
        0.0,
        1.0,
        0.0,
        0.0,
        -1.0,
        0.0,
        0.0,
        0.0,
        0.0,
        0.0,
        1.0
      ],
      "name": "e9b07f95ce954ff681cf74f3959a9691.fbx"
    },
    {
      "children": [
        3,
        5
      ],
      "name": "RootNode"
    },
    {
      "children": [
        4
      ],
      "matrix": [
        17.371495812969627,
        -7.25645657846886e-07,
        -4.714866479940477,
        0.0,
        -7.661371584467109,
        4.158592028279666,
        -28.22762595400566,
        0.0,
        0.7678895066989272,
        20.6187886441183,
        2.8292157254636976,
        0.0,
        112.59053039550781,
        73.54698181152344,
        -107.59297943115234,
        1.0
      ],
      "name": "guardpost_environment_geo"
    },
    {
      "mesh": 0,
      "name": "guardpost_environment_geo_AO_environment_0"
    },
    {
      "children": [
        6,
        7
      ],
      "matrix": [
        100.0,
        0.0,
        0.0,
        0.0,
        0.0,
        -1.629206793918314e-05,
        -99.99999999999868,
        0.0,
        0.0,
        99.99999999999868,
        -1.629206793918314e-05,
        0.0,
        105.78376007080078,
        515.3106689453125,
        -85.16085052490234,
        1.0
      ],
      "name": "guardpost_geo"
    },
    {
      "mesh": 1,
      "name": "guardpost_geo_AO_building_0"
    },
    {
      "mesh": 2,
      "name": "guardpost_geo_AO_building_0"
    }
  ],
  "samplers": [
    {
      "magFilter": 9729,
      "minFilter": 9987,
      "wrapS": 10497,
      "wrapT": 10497
    }
  ],
  "scene": 0,
  "scenes": [
    {
      "name": "Sketchfab_Scene",
      "nodes": [
        0
      ]
    }
  ],
  "textures": [
    {
      "sampler": 0,
      "source": 0
    },
    {
      "sampler": 0,
      "source": 1
    },
    {
      "sampler": 0,
      "source": 2
    }
  ]
}
